<svg xmlns="http://www.w3.org/2000/svg" width="1440" height="900" viewBox="0 0 1440 900" role="img" aria-labelledby="title desc">
  <title id="title">小さなお店向けLP構成サンプルのサムネイル</title>
  <desc id="desc">アイボリーの背景にネイビーとオレンジで、ファーストビュー、強み、サービス、問い合わせ導線を配置したLPデザインのイメージ。</desc>
  <rect width="1440" height="900" fill="#fbf7ef"/>
  <rect x="110" y="80" width="1220" height="740" rx="44" fill="#fffdf8" stroke="#e7dfd2" stroke-width="4"/>
  <rect x="110" y="80" width="1220" height="86" rx="44" fill="#183153"/>
  <circle cx="176" cy="123" r="14" fill="#f2a65a"/>
  <circle cx="218" cy="123" r="14" fill="#f7d9b5"/>
  <circle cx="260" cy="123" r="14" fill="#ffffff" opacity=".72"/>
  <rect x="900" y="112" width="260" height="22" rx="11" fill="#ffffff" opacity=".75"/>
  <rect x="1190" y="103" width="90" height="40" rx="20" fill="#f2a65a"/>
  <g transform="translate(190 235)">
    <rect x="0" y="0" width="150" height="34" rx="17" fill="#fff4e9"/>
    <text x="28" y="23" fill="#9a5b1c" font-family="Arial, sans-serif" font-size="18" font-weight="700">LP SAMPLE</text>
    <text x="0" y="98" fill="#183153" font-family="'Yu Gothic', 'Hiragino Sans', Arial, sans-serif" font-size="58" font-weight="700">伝わる順番で、</text>
    <text x="0" y="170" fill="#183153" font-family="'Yu Gothic', 'Hiragino Sans', Arial, sans-serif" font-size="58" font-weight="700">お店の魅力を届ける。</text>
    <rect x="0" y="220" width="520" height="18" rx="9" fill="#596577" opacity=".22"/>
    <rect x="0" y="258" width="460" height="18" rx="9" fill="#596577" opacity=".18"/>
    <rect x="0" y="320" width="190" height="58" rx="29" fill="#f2a65a"/>
    <text x="44" y="356" fill="#183153" font-family="'Yu Gothic', Arial, sans-serif" font-size="22" font-weight="700">相談する</text>
    <rect x="220" y="320" width="210" height="58" rx="29" fill="none" stroke="#183153" stroke-width="3"/>
    <text x="260" y="356" fill="#183153" font-family="'Yu Gothic', Arial, sans-serif" font-size="22" font-weight="700">実績を見る</text>
  </g>
  <g transform="translate(850 245)">
    <rect x="0" y="0" width="330" height="240" rx="34" fill="#edf3f6"/>
    <rect x="36" y="42" width="120" height="18" rx="9" fill="#183153"/>
    <rect x="36" y="78" width="230" height="14" rx="7" fill="#596577" opacity=".35"/>
    <rect x="36" y="110" width="180" height="14" rx="7" fill="#596577" opacity=".25"/>
    <circle cx="250" cy="154" r="56" fill="#f2a65a" opacity=".82"/>
    <path d="M80 196 C118 138 170 138 214 196 Z" fill="#ffffff"/>
    <path d="M146 196 C180 152 226 156 268 196 Z" fill="#d9e9e8"/>
  </g>
  <g transform="translate(190 665)">
    <rect width="300" height="86" rx="24" fill="#fff4e9"/>
    <rect x="28" y="26" width="54" height="34" rx="17" fill="#f2a65a"/>
    <rect x="104" y="26" width="150" height="14" rx="7" fill="#183153" opacity=".8"/>
    <rect x="104" y="50" width="112" height="12" rx="6" fill="#596577" opacity=".25"/>
  </g>
  <g transform="translate(540 665)">
    <rect width="300" height="86" rx="24" fill="#f5f7f8"/>
    <rect x="28" y="26" width="54" height="34" rx="17" fill="#183153"/>
    <rect x="104" y="26" width="150" height="14" rx="7" fill="#183153" opacity=".8"/>
    <rect x="104" y="50" width="112" height="12" rx="6" fill="#596577" opacity=".25"/>
  </g>
  <g transform="translate(890 665)">
    <rect width="300" height="86" rx="24" fill="#fff4e9"/>
    <rect x="28" y="26" width="54" height="34" rx="17" fill="#f2a65a"/>
    <rect x="104" y="26" width="150" height="14" rx="7" fill="#183153" opacity=".8"/>
    <rect x="104" y="50" width="112" height="12" rx="6" fill="#596577" opacity=".25"/>
  </g>
</svg>
